HIERARCHY
ROOT Hips
{
	OFFSET 0.00000 0.00000 0.00000
	CHANNELS 6 Xposition Yposition Zposition Zrotation Yrotation Xrotation 
	JOINT LHipJoint
	{
		OFFSET 0 0 0
		CHANNELS 3 Zrotation Yrotation Xrotation
		JOINT LeftUpLeg
		{
			OFFSET 1.38691 -1.89057 0.78360
			CHANNELS 3 Zrotation Yrotation Xrotation
			JOINT LeftLeg
			{
				OFFSET 2.59731 -7.13606 0.00000
				CHANNELS 3 Zrotation Yrotation Xrotation
				JOINT LeftFoot
				{
					OFFSET 2.70078 -7.42033 0.00000
					CHANNELS 3 Zrotation Yrotation Xrotation
					JOINT LeftToeBase
					{
						OFFSET 0.16751 -0.46024 2.68862
						CHANNELS 3 Zrotation Yrotation Xrotation
						End Site
						{
							OFFSET 0.00000 -0.00000 1.37057
						}
					}
				}
			}
		}
	}
	JOINT RHipJoint
	{
		OFFSET 0 0 0
		CHANNELS 3 Zrotation Yrotation Xrotation
		JOINT RightUpLeg
		{
			OFFSET -1.38190 -1.89056 0.78359
			CHANNELS 3 Zrotation Yrotation Xrotation
			JOINT RightLeg
			{
				OFFSET -2.57785 -7.08258 0.00000
				CHANNELS 3 Zrotation Yrotation Xrotation
				JOINT RightFoot
				{
					OFFSET -2.77908 -7.63547 0.00000
					CHANNELS 3 Zrotation Yrotation Xrotation
					JOINT RightToeBase
					{
						OFFSET -0.17921 -0.49237 2.62360
						CHANNELS 3 Zrotation Yrotation Xrotation
						End Site
						{
							OFFSET -0.00000 -0.00000 1.34085
						}
					}
				}
			}
		}
	}
	JOINT LowerBack
	{
		OFFSET 0 0 0
		CHANNELS 3 Zrotation Yrotation Xrotation
		JOINT Spine
		{
			OFFSET -0.10749 2.04110 -0.22549
			CHANNELS 3 Zrotation Yrotation Xrotation
			JOINT Spine1
			{
				OFFSET 0.01213 2.05840 0.00691
				CHANNELS 3 Zrotation Yrotation Xrotation
				JOINT Neck
				{
					OFFSET 0 0 0
					CHANNELS 3 Zrotation Yrotation Xrotation
					JOINT Neck1
					{
						OFFSET 0.06585 1.81215 0.35449
						CHANNELS 3 Zrotation Yrotation Xrotation
						JOINT Head
						{
							OFFSET -0.04315 1.87555 -0.27307
							CHANNELS 3 Zrotation Yrotation Xrotation
							End Site
							{
								OFFSET -0.01775 1.89740 -0.13294
							}
						}
					}
				}
				JOINT LeftShoulder
				{
					OFFSET 0 0 0
					CHANNELS 3 Zrotation Yrotation Xrotation
					JOINT LeftArm
					{
						OFFSET 2.98012 1.63606 0.28888
						CHANNELS 3 Zrotation Yrotation Xrotation
						JOINT LeftForeArm
						{
							OFFSET 5.59864 -0.00000 -0.00000
							CHANNELS 3 Zrotation Yrotation Xrotation
							JOINT LeftHand
							{
								OFFSET 3.59542 -0.00000 -0.00000
								CHANNELS 3 Zrotation Yrotation Xrotation
								JOINT LeftFingerBase
								{
									OFFSET 0 0 0
									CHANNELS 3 Zrotation Yrotation Xrotation
									JOINT LeftHandIndex1
									{
										OFFSET 0.57201 -0.00000 -0.00000
										CHANNELS 3 Zrotation Yrotation Xrotation
										End Site
										{
											OFFSET 0.46117 -0.00000 -0.00000
										}
									}
								}
								JOINT LThumb
								{
									OFFSET 0 0 0
									CHANNELS 3 Zrotation Yrotation Xrotation
									End Site
									{
										OFFSET 0.46821 -0.00000 0.46821
									}
								}
							}
						}
					}
				}
				JOINT RightShoulder
				{
					OFFSET 0 0 0
					CHANNELS 3 Zrotation Yrotation Xrotation
					JOINT RightArm
					{
						OFFSET -3.08694 1.53706 0.36335
						CHANNELS 3 Zrotation Yrotation Xrotation
						JOINT RightForeArm
						{
							OFFSET -5.80940 -0.00000 -0.00000
							CHANNELS 3 Zrotation Yrotation Xrotation
							JOINT RightHand
							{
								OFFSET -3.66953 -0.00000 -0.00000
								CHANNELS 3 Zrotation Yrotation Xrotation
								JOINT RightFingerBase
								{
									OFFSET 0 0 0
									CHANNELS 3 Zrotation Yrotation Xrotation
									JOINT RightHandIndex1
									{
										OFFSET -0.57843 -0.00000 -0.00000
										CHANNELS 3 Zrotation Yrotation Xrotation
										End Site
										{
											OFFSET -0.46635 -0.00000 -0.00000
										}
									}
								}
								JOINT RThumb
								{
									OFFSET 0 0 0
									CHANNELS 3 Zrotation Yrotation Xrotation
									End Site
									{
										OFFSET -0.47347 -0.00000 0.47347
									}
								}
							}
						}
					}
				}
			}
		}
	}
}
MOTION
Frames: 7
Frame Time: 0.0540541
0.00 0.00 0.00 0 0 0 0 0 0 -21 0 0 0 0 0 0 0 0 0 0 0 0 0 0 21 0 0 0 0 0 0 0 0 0 0 0 0 0 0 0 0 0 0 0 0 0 0 -16 0 0 21 0 0 11 0 0 0 -8 0 0 0 0 0 0 0 0 0 0 0 0 0 0 0 0 0 0 0 0 8 0 0 0 0 0 0 0 0 0 0 0 0 0 0 0 0 0
0.00 0.00 0.00 -2.4808 38.8711 2.9220 0.0000 0.0000 0.0000 -14.6207 -1.4141 -5.6930 5.9296 14.3597 44.6984 4.9075 -13.6662 -40.4228 0.0734 -1.7481 -4.8100 0.0000 0.0000 0.0000 23.2655 7.3339 -24.3411 -5.8249 -14.2565 44.2747 -3.0123 10.9410 -31.3252 -0.7021 5.3559 -14.9264 -5.2945 -0.7729 10.0213 0.8600 -1.5946 -0.1600 4.1225 -0.6197 -5.6309 -1.5060 -5.1263 -16.7490 3.9904 -8.2708 33.8911 0.4900 -3.0534 14.7970 -0.0000 0.0000 0.0000 -84.2950 2.0672 38.2237 26.5728 -37.7688 -9.2363 -0.0000 0.0000 -24.8727 24.0962 20.4792 8.8933 -7.1250 0.0000 -0.0000 -4.5428 52.1743 -0.8037 -0.0000 0.0000 0.0000 83.7679 1.6531 34.2899 -26.8574 38.0428 -9.4111 0.0000 -0.0000 -18.5962 -37.2716 -2.1699 1.6504 7.1250 -0.0000 -0.0000 -8.6388 -32.6218 -2.6449
0.00 0.00 0.00 -3.2459 33.0602 2.8226 0.0000 0.0000 0.0000 -10.9108 -4.5127 -13.9080 10.4196 17.6392 60.8819 1.6724 3.1182 -25.7178 0.4214 -4.1663 -11.5450 0.0000 0.0000 0.0000 25.5017 7.7377 -19.4034 -4.4143 -12.6922 38.2271 -2.3973 12.0369 -27.9304 -0.7442 5.5108 -15.3713 -4.6308 0.1585 9.8720 1.2850 -0.2453 -0.1173 3.9990 0.0311 -5.6475 -1.4370 -4.4543 -18.7223 3.6265 -7.2268 34.0739 0.4653 -2.6227 15.2711 0.0000 0.0000 0.0000 -84.0662 5.3484 32.6929 26.1039 -37.3112 -8.9506 -0.0000 0.0000 -25.6343 23.4982 20.8888 8.8119 -7.1250 0.0000 -0.0000 -5.2678 52.4988 -0.9744 0.0000 0.0000 0.0000 84.1629 4.4299 36.1036 -25.2758 36.4846 -8.4534 0.0000 -0.0000 -16.7784 -37.6131 -1.6117 1.2414 7.1250 -0.0000 -0.0000 -8.8571 -31.9327 -2.8619
0.00 0.00 0.00 -1.1345 27.8058 4.9511 0.0000 0.0000 0.0000 -8.5439 -19.7086 -13.4390 7.0163 15.3456 48.9358 0.4459 -7.1033 -12.1479 0.0681 -1.6832 -4.6308 0.0000 0.0000 0.0000 22.1567 10.1784 -20.4292 -4.2828 -12.5275 37.6247 -1.6608 11.3911 -23.2700 -1.0480 6.5101 -18.2718 -5.0240 0.5952 11.6901 1.5724 0.2519 1.4750 4.4560 0.2426 -5.0387 -0.7706 -3.9498 -20.0909 3.3926 -6.6471 33.3662 0.3275 -2.3351 15.1905 0.0000 -0.0000 0.0000 -82.8258 6.2954 30.5273 24.7961 -35.9949 -8.1698 -0.0000 0.0000 -29.0402 24.0467 23.1652 9.9557 -7.1250 0.0000 -0.0000 -5.4368 55.0029 -1.3385 0.0000 -0.0000 0.0000 83.6012 8.9045 35.0483 -23.0703 34.1656 -7.1777 0.0000 -0.0000 -15.1093 -38.3753 -1.9511 1.5444 7.1250 -0.0000 -0.0000 -9.5048 -32.3689 -2.9749
0.00 0.00 0.00 0.2155 24.9915 5.9100 0.0000 0.0000 0.0000 -9.4537 -19.8364 -8.8382 3.2717 11.1223 32.6936 0.1121 -2.9048 -5.9829 0.0329 1.1700 3.2168 0.0000 0.0000 0.0000 18.8422 14.4504 -24.4627 -5.5313 -13.9582 43.0703 -1.3295 13.3906 -21.3142 -0.5213 4.6273 -12.8486 -6.4855 1.0576 12.5962 1.5218 0.6327 2.0532 5.1749 0.4420 -4.9864 0.1370 -3.3572 -19.7079 2.1862 -5.6701 33.7995 -0.1403 -1.9792 15.1878 0.0000 0.0000 0.0000 -81.5304 5.0511 32.3215 24.3847 -35.5684 -7.9292 -0.0000 0.0000 -28.3142 25.1046 22.6229 10.2166 -7.1250 0.0000 -0.0000 -4.1428 54.6442 -0.9828 0.0000 0.0000 0.0000 82.9370 9.4428 35.2649 -22.5031 33.5410 -6.8618 0.0000 -0.0000 -14.6480 -38.2608 -2.2614 1.7824 7.1250 -0.0000 -0.0000 -9.4469 -32.7566 -2.8668
0.00 0.00 0.00 3.6257 21.0531 6.5837 0.0000 0.0000 0.0000 -16.4141 -11.8652 -4.3787 2.9280 10.5776 30.8681 0.1741 -7.7023 -8.5738 0.2330 3.1065 8.5754 0.0000 0.0000 0.0000 11.3518 17.5259 -32.9765 -9.4884 -17.1120 57.7644 -0.8109 20.8701 -20.4757 -0.4153 4.1368 -11.4617 -5.9592 0.3019 13.7706 -0.0848 -0.4821 1.6620 3.3701 -0.0915 -5.9177 2.1431 -1.2681 -18.4373 -0.8770 -2.1521 35.1710 -1.1217 -0.6685 15.4049 0.0000 -0.0000 0.0000 -78.9260 5.2220 34.7362 25.1506 -36.3575 -8.3790 -0.0000 0.0000 -29.2557 25.4413 20.9066 9.6346 -7.1250 0.0000 -0.0000 -3.2883 52.8794 -0.6381 0.0000 -0.0000 0.0000 83.0434 5.8292 36.1933 -25.0923 36.2982 -8.3445 0.0000 -0.0000 -16.8113 -38.0492 -1.6640 1.3020 7.1250 -0.0000 -0.0000 -9.2117 -32.0036 -2.9631
0.00 0.00 0.00 6.4133 20.4049 6.7672 0.0000 0.0000 0.0000 -19.0227 -10.2254 2.3902 3.6954 11.7436 34.8308 -0.9422 -20.6378 -5.1126 0.2973 3.5059 9.6905 0.0000 0.0000 0.0000 4.8583 17.6381 -41.5536 -14.3364 -19.2129 73.2292 0.1365 27.9091 -18.9288 -0.2475 3.2011 -8.8392 -5.4696 -0.5284 13.7077 -1.8101 -1.6313 1.2438 1.4784 -0.6662 -6.2779 3.8891 -0.3371 -17.7627 -1.2697 -1.2341 33.6463 -1.4012 -0.1477 14.5405 -0.0000 -0.0000 0.0000 -78.0690 4.1139 35.0823 27.7241 -38.8610 -9.9501 -0.0000 0.0000 -32.7769 28.1754 24.5230 12.5343 -7.1250 0.0000 -0.0000 -1.4226 57.3373 -0.4299 -0.0000 -0.0000 0.0000 84.6371 0.4931 34.4926 -28.2067 39.3058 -10.2544 0.0000 -0.0000 -21.1115 -39.1547 -2.4758 2.0145 7.1250 -0.0000 -0.0000 -10.1943 -33.0476 -3.0269
